<?xml version="1.0" encoding="UTF-8" standalone="no"?>
<!DOCTYPE svg PUBLIC "-//W3C//DTD SVG 1.1//EN" "http://www.w3.org/Graphics/SVG/1.1/DTD/svg11.dtd">
<svg width="100%" height="100%" viewBox="0 0 826 826" version="1.1" xmlns="http://www.w3.org/2000/svg" xmlns:xlink="http://www.w3.org/1999/xlink" xml:space="preserve" xmlns:serif="http://www.serif.com/" style="fill-rule:evenodd;clip-rule:evenodd;stroke-linecap:round;stroke-linejoin:round;stroke-miterlimit:1.5;">
    <g transform="matrix(1,0,0,1,-1008.08,-116)">
        <g transform="matrix(1,0,0,1,32.1389,-46.5246)">
            <g transform="matrix(2.36121,0,0,1.58732,-443.964,-428.61)">
                <ellipse cx="776.239" cy="632.573" rx="173.2" ry="257.643" style="fill:rgb(204,0,0);stroke:black;stroke-width:3.98px;"/>
            </g>
            <g id="V3">
                <g id="V2" transform="matrix(1,0,0,1,105.979,6.52457)">
                    <path d="M1300.08,941.824L1300.88,785L1300.94,823.22L1386.35,927.671C1358.78,935.621 1329.88,940.474 1300.08,941.824ZM1265.38,941.807C1234.18,940.362 1203.97,935.078 1175.25,926.422L1266.27,820L1266.49,785.111L1265.38,941.807ZM1141.99,914.647C1005.76,858.995 909.669,725.112 909.669,568.962C909.669,362.96 1076.92,195.712 1282.92,195.712C1488.92,195.712 1656.17,362.96 1656.17,568.962C1656.17,726.698 1558.11,861.713 1419.71,916.312L1316.91,793.504C1321.62,792.519 1326.4,791.301 1331.21,789.808C1340.19,787.018 1342.52,775.975 1342.52,775.975L1323.96,755.925C1323.96,755.925 1244.96,756.925 1243.96,755.925L1225.25,774.98C1225.25,774.98 1227.45,785.764 1236.24,789.311C1240.09,790.862 1245.07,792.36 1250.88,793.631L1141.99,914.647ZM1397.68,567.046C1397.68,586.21 1392.88,604.253 1384.47,620.108C1365.38,656.151 1327.51,680.779 1283.96,680.779C1240.49,680.779 1202.67,656.241 1183.53,620.304C1175.07,604.401 1170.22,586.284 1170.22,567.046C1170.22,504.337 1221.24,453.318 1283.96,453.318C1346.67,453.318 1397.68,504.337 1397.68,567.046Z" style="fill:rgb(76,0,0);stroke:rgb(3,0,0);stroke-width:8px;"/>
                </g>
                <g transform="matrix(1,0,0,1,2.95687,-31.075)">
                    <g transform="matrix(1,0,0,1,103.022,37.5996)">
                        <path d="M1371,567.046C1371,519.049 1331.95,480 1283.96,480C1235.96,480 1196.91,519.049 1196.91,567.046C1196.91,615.042 1235.96,654.096 1283.96,654.096C1331.95,654.096 1371,615.047 1371,567.046Z" style="stroke:rgb(3,0,0);stroke-width:8px;"/>
                    </g>
                    <g transform="matrix(1,0,0,1.12857,105.979,-59.0469)">
                        <path d="M1280,580L1280,513.544" style="fill:none;stroke:rgb(204,0,0);stroke-width:2.81px;"/>
                    </g>
                    <g transform="matrix(1.07143,0,0,1,4.12218,6.52457)">
                        <path d="M1300,600L1370,600" style="fill:none;stroke:rgb(204,0,0);stroke-width:2.89px;"/>
                    </g>
                    <g transform="matrix(1,0,0,1.15,105.979,-95.4754)">
                        <path d="M1280,620L1280,680" style="fill:none;stroke:rgb(204,0,0);stroke-width:2.78px;"/>
                    </g>
                    <g transform="matrix(1.15,0,0,1,-74.0207,6.52457)">
                        <path d="M1194.74,600L1260,600" style="fill:none;stroke:rgb(204,0,0);stroke-width:2.78px;"/>
                    </g>
                    <g transform="matrix(0.55,0,0,0.55,681.979,276.525)">
                        <circle cx="1280" cy="600" r="20" style="fill:rgb(204,0,0);stroke:rgb(204,0,0);stroke-width:14.55px;"/>
                    </g>
                    <g transform="matrix(1,0,0,1,103.022,37.5996)">
                        <path d="M1371,567.046C1371,519.049 1331.95,480 1283.96,480C1235.96,480 1196.91,519.049 1196.91,567.046C1196.91,615.042 1235.96,654.096 1283.96,654.096C1331.95,654.096 1371,615.047 1371,567.046Z" style="fill:none;stroke:rgb(3,0,0);stroke-width:8px;"/>
                    </g>
                </g>
                <g transform="matrix(-0.955103,0.296274,-0.296274,-0.955103,2162.95,503.346)">
                    <g transform="matrix(-0.472211,0.881486,-0.881486,-0.472211,1600.48,-549.979)">
                        <text x="964.892px" y="204.155px" style="font-family:'MidnightConstellations';font-weight:500;font-size:160px;fill:rgb(204,0,0);stroke:rgb(204,0,0);stroke-width:2.76px;stroke-linecap:butt;stroke-miterlimit:2;">N</text>
                    </g>
                    <g transform="matrix(-0.864528,0.502585,-0.502585,-0.864528,1843.29,120.07)">
                        <text x="905.461px" y="308.465px" style="font-family:'MidnightConstellations';font-weight:500;font-size:160px;fill:rgb(204,0,0);stroke:rgb(204,0,0);stroke-width:2.76px;stroke-linecap:butt;stroke-miterlimit:2;">a</text>
                    </g>
                    <g transform="matrix(-0.985736,0.168298,-0.168298,-0.985736,1679.16,567.253)">
                        <text x="815.54px" y="354.784px" style="font-family:'MidnightConstellations';font-weight:500;font-size:160px;fill:rgb(204,0,0);stroke:rgb(204,0,0);stroke-width:2.76px;stroke-linecap:butt;stroke-miterlimit:2;">f</text>
                    </g>
                    <g transform="matrix(-0.962734,-0.270451,0.270451,-0.962734,1383.57,925.889)">
                        <text x="755.575px" y="367.621px" style="font-family:'MidnightConstellations';font-weight:500;font-size:160px;fill:rgb(204,0,0);stroke:rgb(204,0,0);stroke-width:2.76px;stroke-linecap:butt;stroke-miterlimit:2;">a</text>
                    </g>
                    <g transform="matrix(-0.710258,-0.703941,0.703941,-0.710258,883.102,1042.22)">
                        <text x="656.04px" y="339.369px" style="font-family:'MidnightConstellations';font-weight:500;font-size:160px;fill:rgb(204,0,0);stroke:rgb(204,0,0);stroke-width:2.76px;stroke-linecap:butt;stroke-miterlimit:2;">B</text>
                    </g>
                    <g transform="matrix(-0.273443,-0.961888,0.961888,-0.273443,488.744,889.495)">
                        <text x="580.31px" y="260.163px" style="font-family:'MidnightConstellations';font-weight:500;font-size:160px;fill:rgb(204,0,0);stroke:rgb(204,0,0);stroke-width:2.76px;stroke-linecap:butt;stroke-miterlimit:2;">o</text>
                    </g>
                    <g transform="matrix(0.157438,-0.987529,0.987529,0.157438,305.061,689.485)">
                        <text x="556.588px" y="165.969px" style="font-family:'MidnightConstellations';font-weight:500;font-size:160px;fill:rgb(204,0,0);stroke:rgb(204,0,0);stroke-width:2.76px;stroke-linecap:butt;stroke-miterlimit:2;">x</text>
                    </g>
                </g>
                <g transform="matrix(-0.977257,0.212058,-0.212058,-0.977257,2403.41,723.724)">
                    <g transform="matrix(-0.549245,-0.835661,0.835661,-0.549245,1889.47,1317.57)">
                        <text x="1300.08px" y="149.195px" style="font-family:'LucidaConsole', 'Lucida Console', monospace;font-stretch:semi-condensed;font-size:30px;">P</text>
                    </g>
                    <g transform="matrix(-0.584071,-0.811703,0.811703,-0.584071,1934.9,1259.62)">
                        <text x="1290.17px" y="134.072px" style="font-family:'LucidaConsole', 'Lucida Console', monospace;font-stretch:semi-condensed;font-size:30px;">o</text>
                    </g>
                    <g transform="matrix(-0.619956,-0.784636,0.784636,-0.619956,1979.23,1197.45)">
                        <text x="1279.61px" y="119.397px" style="font-family:'LucidaConsole', 'Lucida Console', monospace;font-stretch:semi-condensed;font-size:30px;">w</text>
                    </g>
                    <g transform="matrix(-0.654652,-0.755931,0.755931,-0.654652,2019.23,1132.9)">
                        <text x="1268.4px" y="105.206px" style="font-family:'LucidaConsole', 'Lucida Console', monospace;font-stretch:semi-condensed;font-size:30px;">e</text>
                    </g>
                    <g transform="matrix(-0.690198,-0.723621,0.723621,-0.690198,2057.68,1064.03)">
                        <text x="1256.61px" y="91.542px" style="font-family:'LucidaConsole', 'Lucida Console', monospace;font-stretch:semi-condensed;font-size:30px;">r</text>
                    </g>
                    <g transform="matrix(-0.719756,-0.694227,0.694227,-0.719756,2085.16,998.563)">
                        <text x="1244.13px" y="78.415px" style="font-family:'LucidaConsole', 'Lucida Console', monospace;font-stretch:semi-condensed;font-size:30px;">e</text>
                    </g>
                    <g transform="matrix(-0.749739,-0.661734,0.661734,-0.749739,2110.54,929.929)">
                        <text x="1231.12px" y="65.871px" style="font-family:'LucidaConsole', 'Lucida Console', monospace;font-stretch:semi-condensed;font-size:30px;">d</text>
                    </g>
                    <g transform="matrix(-0.807087,-0.590432,0.590432,-0.807087,2149.66,787.495)">
                        <text x="1203.48px" y="42.566px" style="font-family:'LucidaConsole', 'Lucida Console', monospace;font-stretch:semi-condensed;font-size:30px;">b</text>
                    </g>
                    <g transform="matrix(-0.832503,-0.554021,0.554021,-0.832503,2161.02,717.118)">
                        <text x="1188.91px" y="31.889px" style="font-family:'LucidaConsole', 'Lucida Console', monospace;font-stretch:semi-condensed;font-size:30px;">y</text>
                    </g>
                    <g transform="matrix(-0.878879,-0.477044,0.477044,-0.878879,2170.43,576.097)">
                        <text x="1158.35px" y="12.514px" style="font-family:'LucidaConsole', 'Lucida Console', monospace;font-stretch:semi-condensed;font-size:30px;">O</text>
                    </g>
                    <g transform="matrix(-0.900145,-0.43559,0.43559,-0.900145,2169.2,505.047)">
                        <text x="1142.49px" y="3.89px" style="font-family:'LucidaConsole', 'Lucida Console', monospace;font-stretch:semi-condensed;font-size:30px;">p</text>
                    </g>
                    <g transform="matrix(-0.9185,-0.39542,0.39542,-0.9185,2162.22,437.651)">
                        <text x="1126.21px" y="-4.001px" style="font-family:'LucidaConsole', 'Lucida Console', monospace;font-stretch:semi-condensed;font-size:30px;">e</text>
                    </g>
                    <g transform="matrix(-0.935521,-0.353271,0.353271,-0.935521,2151.64,370.427)">
                        <text x="1109.62px" y="-11.144px" style="font-family:'LucidaConsole', 'Lucida Console', monospace;font-stretch:semi-condensed;font-size:30px;">n</text>
                    </g>
                    <g transform="matrix(-0.963804,-0.266612,0.266612,-0.963804,2118.26,241.283)">
                        <text x="1075.51px" y="-23.15px" style="font-family:'LucidaConsole', 'Lucida Console', monospace;font-stretch:semi-condensed;font-size:30px;">s</text>
                    </g>
                    <g transform="matrix(-0.974893,-0.222673,0.222673,-0.974893,2095.89,180.39)">
                        <text x="1058.12px" y="-27.963px" style="font-family:'LucidaConsole', 'Lucida Console', monospace;font-stretch:semi-condensed;font-size:30px;">o</text>
                    </g>
                    <g transform="matrix(-0.984001,-0.178162,0.178162,-0.984001,2069.98,121.896)">
                        <text x="1040.46px" y="-31.993px" style="font-family:'LucidaConsole', 'Lucida Console', monospace;font-stretch:semi-condensed;font-size:30px;">u</text>
                    </g>
                    <g transform="matrix(-0.991518,-0.12997,0.12997,-0.991518,2041.3,62.734)">
                        <text x="1022.7px" y="-35.242px" style="font-family:'LucidaConsole', 'Lucida Console', monospace;font-stretch:semi-condensed;font-size:30px;">r</text>
                    </g>
                    <g transform="matrix(-0.996139,-0.0877919,0.0877919,-0.996139,2008.91,13.0971)">
                        <text x="1004.75px" y="-37.628px" style="font-family:'LucidaConsole', 'Lucida Console', monospace;font-stretch:semi-condensed;font-size:30px;">c</text>
                    </g>
                    <g transform="matrix(-0.99905,-0.0435755,0.0435755,-0.99905,1974.29,-35.403)">
                        <text x="986.76px" y="-39.219px" style="font-family:'LucidaConsole', 'Lucida Console', monospace;font-stretch:semi-condensed;font-size:30px;">e</text>
                    </g>
                    <g transform="matrix(-0.998971,0.0453559,-0.0453559,-0.998971,1898.41,-123.058)">
                        <text x="950.601px" y="-39.992px" style="font-family:'LucidaConsole', 'Lucida Console', monospace;font-stretch:semi-condensed;font-size:30px;">t</text>
                    </g>
                    <g transform="matrix(-0.995919,0.0902523,-0.0902523,-0.995919,1857.74,-162.35)">
                        <text x="932.542px" y="-39.173px" style="font-family:'LucidaConsole', 'Lucida Console', monospace;font-stretch:semi-condensed;font-size:30px;">e</text>
                    </g>
                    <g transform="matrix(-0.990759,0.135633,-0.135633,-0.990759,1815.51,-198.786)">
                        <text x="914.524px" y="-37.547px" style="font-family:'LucidaConsole', 'Lucida Console', monospace;font-stretch:semi-condensed;font-size:30px;">c</text>
                    </g>
                    <g transform="matrix(-0.983685,0.179899,-0.179899,-0.983685,1772.31,-230.937)">
                        <text x="896.628px" y="-35.104px" style="font-family:'LucidaConsole', 'Lucida Console', monospace;font-stretch:semi-condensed;font-size:30px;">h</text>
                    </g>
                    <g transform="matrix(-0.9745,0.224387,-0.224387,-0.9745,1728.17,-260.108)">
                        <text x="878.864px" y="-31.857px" style="font-family:'LucidaConsole', 'Lucida Console', monospace;font-stretch:semi-condensed;font-size:30px;">n</text>
                    </g>
                    <g transform="matrix(-0.963284,0.268486,-0.268486,-0.963284,1683.36,-285.795)">
                        <text x="861.22px" y="-27.795px" style="font-family:'LucidaConsole', 'Lucida Console', monospace;font-stretch:semi-condensed;font-size:30px;">o</text>
                    </g>
                    <g transform="matrix(-0.951613,0.3073,-0.3073,-0.951613,1639.78,-304.006)">
                        <text x="843.822px" y="-22.904px" style="font-family:'LucidaConsole', 'Lucida Console', monospace;font-stretch:semi-condensed;font-size:30px;">l</text>
                    </g>
                    <g transform="matrix(-0.93484,0.355069,-0.355069,-0.93484,1593.22,-326.959)">
                        <text x="826.608px" y="-17.291px" style="font-family:'LucidaConsole', 'Lucida Console', monospace;font-stretch:semi-condensed;font-size:30px;">o</text>
                    </g>
                    <g transform="matrix(-0.91797,0.39665,-0.39665,-0.91797,1548.69,-342.015)">
                        <text x="809.711px" y="-10.867px" style="font-family:'LucidaConsole', 'Lucida Console', monospace;font-stretch:semi-condensed;font-size:30px;">g</text>
                    </g>
                    <g transform="matrix(-0.900931,0.433962,-0.433962,-0.900931,1506.12,-351.144)">
                        <text x="793.139px" y="-3.657px" style="font-family:'LucidaConsole', 'Lucida Console', monospace;font-stretch:semi-condensed;font-size:30px;">i</text>
                    </g>
                    <g transform="matrix(-0.877975,0.478707,-0.478707,-0.877975,1461.03,-363.991)">
                        <text x="776.904px" y="4.216px" style="font-family:'LucidaConsole', 'Lucida Console', monospace;font-stretch:semi-condensed;font-size:30px;">e</text>
                    </g>
                    <g transform="matrix(-0.855386,0.517991,-0.517991,-0.855386,1418.64,-370.301)">
                        <text x="761.013px" y="12.88px" style="font-family:'LucidaConsole', 'Lucida Console', monospace;font-stretch:semi-condensed;font-size:30px;">s</text>
                    </g>
                    <g transform="matrix(-0.831253,0.555894,-0.555894,-0.831253,1377.67,-373.73)">
                        <text x="745.558px" y="22.237px" style="font-family:'LucidaConsole', 'Lucida Console', monospace;font-stretch:semi-condensed;font-size:30px;">.</text>
                    </g>
                </g>
                <g transform="matrix(1,0,0,1,289.936,74.4495)">
                    <path d="M1173,411L1192,390" style="fill:none;stroke:black;stroke-width:8px;"/>
                    <g transform="matrix(1,0,0,1,-12,10)">
                        <circle cx="1207" cy="375" r="15" style="fill:rgb(204,0,0);stroke:black;stroke-width:8px;"/>
                    </g>
                </g>
                <g transform="matrix(1,0,0,1,103.936,-26.4754)">
                    <path d="M1169.61,580.925L1146,580.925L1146,620.925L1171,620.925L1169.61,580.925Z" style="fill:rgb(204,0,0);stroke:black;stroke-width:8px;"/>
                    <g transform="matrix(1,0,0,1,15,0.924956)">
                        <rect x="1106" y="570" width="29" height="60" style="fill:rgb(204,0,0);stroke:black;stroke-width:8px;"/>
                    </g>
                </g>
                <g transform="matrix(1.43612,7.97205e-17,0,1.43612,1531.64,625.97)">
                    <path d="M24.7,11.8C24.9,13.2 24.6,14.1 24.5,15.1C24.1,19.3 25.3,23 28,26.3C28.9,27.4 30.1,28 31.5,28.1C32.4,28.2 33.2,28.6 34,29.1C34.5,29.4 34.8,29.8 34.6,30.4C34.5,30.9 34,31.1 33.6,31.1C31.6,31.1 29.8,31.8 27.9,32.1C26.8,32.3 26,32.7 25.2,33.5C23.2,35.5 22.3,37.9 22.2,40.7L22.2,43.4C22.2,43.8 22.2,44.4 21.6,44.4C21.1,44.4 20.9,43.9 20.8,43.5C20.3,41.3 19.9,39.1 19.4,36.9C19.1,35.5 18.6,34.2 18,32.9C17.2,31.1 15.8,30.1 14,29.7C12.3,29.4 10.6,29.2 8.9,28.9C8.5,28.8 8,28.8 7.6,28.8C7.1,28.8 6.5,28.8 6.4,28.1C6.3,27.4 6.8,27.3 7.3,27.1C9.6,26.3 12,25.7 14.3,24.7C17.3,23.4 19.9,21.6 20.8,18.2C21.2,16.8 21.7,15.5 21.8,14.1C21.9,12.5 23.6,11.6 23.7,10C23.7,9.9 24.1,9.8 24.3,9.8C24.5,9.8 24.8,10 24.8,10.2C24.7,10.8 24.7,11.5 24.7,11.8ZM11.2,27.5C13.4,28 15.6,28.3 17.4,29.7C19.4,31.2 19.6,33.7 20.8,35.6C21.3,35.4 21.3,35 21.5,34.7C22.6,32.5 24.1,31 26.7,30.7C28,30.6 29.3,30 30.6,29.6C29.7,28.6 28.5,28.6 27.6,27.8C25.9,26.3 25.3,24.2 24.2,22.4C23.4,21 23.3,19.3 22.7,17.4C22.2,18.9 21.7,20.1 21.3,21.3C20.5,23.8 19,25.4 16.3,25.8C14.6,26 12.9,26.6 11.2,27.5Z" style="fill:rgb(204,0,0);fill-rule:nonzero;"/>
                    <path d="M54.6,65.9C54.5,65.4 54.6,64.7 54.6,64C55,60.1 52.4,57.1 48.5,57L48.1,57C47.6,57 47.1,57 47,56.5C46.8,55.8 47.5,55.5 47.9,55.5C52,54.8 53.7,51.5 55.7,48.4C56.2,47.7 56.2,46.7 56.5,45.9C56.7,45.4 57.1,44.9 57.7,45.1C58.4,45.3 58.4,45.9 58.2,46.5C57,49.5 58.2,52 60,54.4C60.7,55.3 62,55.4 62.8,56.1C63.1,56.4 63.6,56.5 64,56.8C64.8,57.4 64.7,57.9 63.8,58.2C62.5,58.6 61.4,59.4 60.1,59.5C58.4,59.7 57.6,60.8 57.1,62.4C56.6,64.1 56.3,65.7 56.4,67.5C56.4,68 56.6,68.9 55.7,68.8C55,68.7 54.9,68 54.8,67.4C54.4,66.9 54.6,66.5 54.6,65.9ZM52,55.9C53.6,57.1 54.4,58.7 55.6,60.2C57,59.1 58.2,57.9 59.9,57.2C58.5,55.3 57.1,53.6 56.5,51.2C55.3,53.4 53.6,54.6 52,55.9Z" style="fill:rgb(204,0,0);fill-rule:nonzero;"/>
                    <path d="M88.8,35C88.2,38.4 90.4,40.2 92.9,41.7C93.5,42.1 94.1,42.3 94.7,42.6C95.1,42.8 95.6,42.9 95.5,43.5C95.5,44.1 95,44.1 94.5,44.2C92.9,44.6 91.4,45 89.9,45.6C88.5,46.2 88.2,47.3 88.1,48.6C88.1,49.6 88.1,50.7 87.9,51.7C87.8,52.3 87.6,52.7 86.9,52.7C86.2,52.6 86.1,52.1 86.1,51.6L86.1,49.8C86.1,48.5 85.7,47.3 85,46.2C84.2,45 83.2,44.2 81.7,44.6C81.3,44.7 81,44.7 80.6,44.6C80.3,44.6 80,44.5 80,44.1C80,43.9 80.1,43.6 80.3,43.5C81,43 81.7,42.4 82.5,42C83.8,41.2 84.9,40.3 85.8,39C86.6,37.9 87.1,36.7 86.9,35.3L86.9,34.2C87,33.5 87,32.7 88,32.8C88.9,32.9 88.8,33.7 88.7,34.4C88.7,34.6 88.8,34.8 88.8,35ZM87.2,46.5C87.8,44.6 89.2,43.7 90.7,42.8C89.4,41.7 89.1,40 87.7,39.1C86.5,40.6 85.5,42.1 83.7,43C85.1,43.9 86.2,45 87.2,46.5Z" style="fill:rgb(204,0,0);fill-rule:nonzero;"/>
                    <path d="M18.9,69.6C18.7,70.6 18.4,71.6 18.6,72.7C18.9,74.8 19.3,76.8 21.1,78.2C21.4,78.4 21.6,78.7 21.8,79.1C22.8,80.5 22.6,80.9 21,81.3C19.2,81.8 18.5,82.6 18.5,84.5C18.5,86.4 18.2,88.4 18,90.3C18,90.7 18,91.1 17.9,91.4C17.8,91.8 17.5,92 17,92C16.6,91.9 16.4,91.6 16.4,91.2C16.3,89.5 16.3,87.8 16.2,86.1C16.1,84.4 16.1,82.7 15.2,81.1C14.4,79.9 13.5,78.8 11.9,78.9C11.5,78.9 11.1,79 11,78.5C10.9,77.9 11.2,77.6 11.6,77.5C13.5,77.2 14.5,75.7 15.5,74.4C16.4,73.3 16.8,71.9 17.2,70.6C17.3,70.2 17.4,69.7 17.5,69.3C17.7,68.8 17.9,68.3 18.6,68.5C19.1,68.6 19,69.1 18.9,69.6ZM20.8,79.7C19.3,78 17.8,76.4 17.8,73.6C16.7,75.3 15.8,76.4 14.8,77.3C14.5,77.6 14.3,78 14.7,78.3C16.3,79.5 16.7,81.4 17.3,83.4C18.3,81.1 18.3,81.1 20.8,79.7Z" style="fill:rgb(204,0,0);fill-rule:nonzero;"/>
                    <path d="M66.8,5.8C66.3,6.9 66.7,8.2 66.9,9.4C66.9,9.6 67,9.8 67,10.1C67.1,11.1 68.6,11.2 68.5,12.2C68.4,13.1 67.1,13 66.7,14C66.2,15.1 66,16.3 66,17.5C66,18 66,18.6 65.3,18.6C64.5,18.6 64.6,18 64.5,17.5C64.4,16.6 64.3,15.7 64.3,14.8C64.3,13.5 63.9,12.6 62.3,12.3C61.1,12.1 61.1,11.4 62,10.7C62.5,10.3 63,10 63.4,9.6C64.2,9 64.8,8.3 64.8,7.2C64.8,6.6 64.9,5.8 65.3,5.3C65.6,5 65.8,4.5 66.4,4.8C66.9,4.9 66.8,5.3 66.8,5.8ZM65.7,9.8C64.2,11 64.1,11.3 65.1,12.3C65.3,12.5 65.5,12.7 65.8,12.5C66,12.3 66.3,12.1 66.3,11.8C66.2,11.2 66,10.6 65.7,9.8Z" style="fill:rgb(204,0,0);fill-rule:nonzero;"/>
                    <path d="M75.4,85.9C74.7,87.6 75.5,88.8 76.8,89.7C77.7,90.3 77.4,90.8 76.6,91.1C75,91.9 74.3,93.1 74.8,94.9C74.9,95.2 74.9,95.5 74.8,95.8C74.8,96.1 74.7,96.4 74.3,96.4C74,96.5 73.7,96.3 73.6,96C73.3,95.2 73,94.3 72.8,93.4C72.6,92.3 72.7,91.1 71.2,90.8C70.7,90.7 70.7,89.9 71.1,89.7C73,88.9 73.1,87.1 73.6,85.5C73.6,85.4 73.7,85.4 73.7,85.3C74,84.9 74,84.2 74.7,84.3C75.6,84.6 75.3,85.4 75.4,85.9ZM74.3,90.9C74.7,90.8 74.9,90.5 74.9,90.1C74.8,89.7 74.6,89.4 74.2,89.4C73.7,89.4 73.6,89.8 73.7,90.2C73.7,90.5 73.9,90.8 74.3,90.9Z" style="fill:rgb(204,0,0);fill-rule:nonzero;"/>
                </g>
                <g transform="matrix(1.14448,0,0,1.1398,1390.79,876.219)">
                    <path d="M-140.41,-156.327C-145.566,-156.3 -149.929,-151.269 -149.169,-146.153C-148.794,-141.213 -143.765,-137.274 -138.872,-138.203C-134.308,-138.661 -130.44,-143.243 -131.062,-147.869C-131.078,-152.608 -135.779,-156.557 -140.41,-156.327ZM-139.735,-152.561C-135.805,-152.581 -133.263,-147.613 -135.481,-144.391C-137.523,-140.607 -144.083,-141.115 -145.243,-145.369C-146.533,-148.971 -143.673,-153.048 -139.735,-152.561ZM-152.74,-129.573C-156.785,-129.459 -160.133,-125.424 -159.305,-121.415C-158.758,-116.913 -153.224,-114.076 -149.27,-116.354C-146.093,-117.878 -144.569,-121.845 -145.917,-125.105C-146.909,-127.876 -149.812,-129.746 -152.74,-129.573ZM-152.214,-125.845C-149.13,-125.921 -148.125,-121.564 -150.413,-119.877C-152.333,-118.648 -155.55,-119.513 -155.643,-122.092C-156.068,-124.168 -154.317,-126.052 -152.214,-125.845ZM-212.931,-166.838C-218.292,-166.347 -222.595,-162.613 -226.73,-159.514C-231.844,-155.161 -237.257,-150.562 -239.948,-144.248C-241.237,-141.485 -240.297,-138.035 -237.7,-136.398C-233.944,-134.035 -229.153,-135.306 -225.358,-136.937C-218.126,-140.298 -211.776,-145.897 -207.955,-152.937C-206.135,-156.425 -204.677,-161.269 -207.645,-164.569C-208.933,-166.113 -210.922,-166.978 -212.931,-166.838ZM-211.862,-163.078C-209.46,-162.695 -209.41,-159.473 -210.028,-157.636C-212.037,-151.095 -217.336,-146.117 -222.873,-142.405C-226.46,-140.227 -230.814,-138.04 -235.102,-139.189C-237.147,-139.815 -237.097,-142.307 -236.13,-143.818C-232.841,-149.763 -227.473,-154.221 -222.229,-158.393C-219.186,-160.606 -215.797,-163.097 -211.862,-163.078ZM-206.234,-203.34C-223.142,-203.33 -239.586,-193.634 -247.809,-178.866C-255.12,-166.217 -256.217,-150.19 -250.444,-136.738C-247.134,-128.421 -241.284,-121.246 -234.105,-115.953C-225.202,-109.651 -214.184,-106.112 -203.239,-106.958C-184.729,-107.614 -167.459,-120.309 -160.89,-137.566C-158.159,-144.338 -157.267,-151.72 -157.852,-158.975C-158.853,-176.293 -170.505,-192.246 -186.309,-199.166C-192.551,-201.962 -199.394,-203.409 -206.234,-203.34ZM-204.011,-199.562C-203.438,-199.418 -202.228,-199.778 -201.947,-199.239C-205.629,-194.762 -211.447,-192.98 -216.581,-190.72C-222.022,-188.399 -227.713,-186.353 -232.524,-182.841C-233.999,-181.837 -232.775,-179.276 -231.144,-179.701C-226.41,-182.407 -221.513,-184.825 -216.42,-186.792C-210.592,-189.287 -204.219,-191.33 -199.827,-196.157C-198.851,-196.886 -198.193,-198.345 -197.281,-198.827C-195.48,-198.372 -193.635,-198.043 -191.905,-197.348C-196.712,-189.589 -203.377,-182.896 -211.533,-178.695C-220.907,-173.604 -230.931,-169.191 -238.566,-161.514C-242.896,-157.467 -246.491,-152.735 -249.863,-147.883C-250.469,-152.594 -250.707,-157.483 -249.736,-162.154C-247.575,-165.436 -244.414,-167.954 -241.683,-170.761C-239.903,-172.732 -237.424,-174.109 -235.966,-176.325C-235.545,-177.933 -237.762,-179.422 -238.941,-177.995C-242.063,-175.789 -244.54,-172.751 -247.546,-170.456C-247.014,-172.996 -245.413,-175.36 -244.202,-177.695C-240.724,-183.636 -235.751,-188.716 -230.016,-192.503C-222.666,-197.25 -213.924,-199.765 -205.17,-199.561C-204.783,-199.568 -204.397,-199.563 -204.011,-199.562L-204.011,-199.562ZM-187.212,-195.557C-183.729,-193.89 -180.386,-191.856 -177.415,-189.38C-183.25,-181.987 -187.504,-173.51 -191.588,-165.069C-192.699,-163.386 -189.728,-161.243 -188.699,-163.171C-185.413,-168.922 -182.696,-175.009 -179.105,-180.597C-177.715,-182.649 -176.477,-184.916 -174.706,-186.641C-173.505,-186.327 -172.891,-184.814 -171.967,-184.009C-170.267,-181.998 -168.709,-179.863 -167.379,-177.589C-171.907,-172.508 -175.712,-166.788 -178.317,-160.485C-181.902,-152.26 -185.267,-143.555 -191.959,-137.277C-196.118,-132.852 -201.17,-129.454 -206.236,-126.178C-207.948,-125.183 -206.224,-122.286 -204.488,-123.252C-199.086,-125.938 -194.397,-129.906 -189.995,-133.989C-184.076,-139.449 -180.237,-146.648 -177.119,-153.969C-174.302,-160.608 -171.431,-167.379 -166.574,-172.829C-166.257,-173.159 -165.584,-174.524 -165.251,-173.45C-163.548,-169.549 -162.329,-165.436 -161.725,-161.219C-168.043,-150.631 -173.759,-139.319 -183.027,-130.925C-191.018,-123.48 -200.103,-117.321 -209.257,-111.416C-211.428,-110.16 -214.015,-111.446 -216.284,-111.759C-219.392,-112.593 -222.64,-113.57 -225.409,-115.094C-220.439,-117.111 -215.112,-118.356 -210.361,-120.885C-209.058,-122.293 -210.981,-124.59 -212.639,-123.602C-218.512,-121.58 -224.315,-119.15 -230.384,-117.821C-232.571,-119.363 -234.887,-121.038 -236.647,-122.968C-227.375,-125.431 -218.458,-129.49 -210.956,-135.537C-203.448,-141.503 -196.839,-148.74 -192.014,-157.047C-191.637,-158.58 -193.847,-159.797 -194.95,-158.603C-198.152,-154.499 -200.916,-150.018 -204.674,-146.362C-211.096,-139.4 -218.807,-133.569 -227.585,-129.921C-231.509,-128.232 -235.623,-127.032 -239.788,-126.102C-243.8,-131.021 -246.903,-136.722 -248.735,-142.805C-242.244,-153.236 -233.694,-162.723 -222.728,-168.533C-213.899,-173.548 -204.112,-177.386 -197.002,-184.909C-193.671,-188.247 -190.92,-192.099 -188.375,-196.053C-187.987,-195.888 -187.6,-195.723 -187.212,-195.557ZM-161.502,-151.717C-162.49,-135.529 -173.24,-120.395 -188.232,-114.171C-193.008,-112.189 -198.174,-110.794 -203.338,-110.672C-199.75,-113.473 -195.707,-115.949 -192.039,-118.756C-183.143,-125.236 -174.749,-132.719 -168.915,-142.158C-166.243,-146.164 -163.818,-150.325 -161.367,-154.467C-161.412,-153.551 -161.457,-152.634 -161.502,-151.717Z" style="fill:rgb(204,0,0);fill-rule:nonzero;"/>
                </g>
                <g transform="matrix(1.21635,0,0,1.01923,746.629,399.68)">
                    <g transform="matrix(1,0,0,1,496,294)">
                        <path d="M62,6L35,6C33.903,6 33,6.903 33,8L33,13L29,13L29,8C29,6.903 28.097,6 27,6L2,6C0.903,6 -0,6.903 0,8L0,56C0,57.097 0.903,58 2,58L62,58C63.097,58 64,57.097 64,56L64,8C64,6.903 63.097,6 62,6Z" style="fill:none;fill-rule:nonzero;stroke:black;stroke-width:7.13px;stroke-linecap:butt;stroke-miterlimit:2;"/>
                        <path d="M62,6L35,6C33.903,6 33,6.903 33,8L33,13L29,13L29,8C29,6.903 28.097,6 27,6L2,6C0.903,6 -0,6.903 0,8L0,56C0,57.097 0.903,58 2,58L62,58C63.097,58 64,57.097 64,56L64,8C64,6.903 63.097,6 62,6Z" style="fill:rgb(204,0,0);fill-rule:nonzero;"/>
                    </g>
                    <g transform="matrix(1,0,0,1,496,294)">
                        <path d="M55,29C55,27.903 54.097,27 53,27L52,27L52,23L48,23L48,27L46,27L46,23L42,23L42,27L40,27L40,23L36,23L36,27L35,27C33.903,27 33,27.903 33,29L33,30L29,30L29,34L33,34L33,36L29,36L29,40L33,40L33,42L29,42L29,46L33,46L33,47C33,48.097 33.903,49 35,49L36,49L36,53L40,53L40,49L42,49L42,53L46,53L46,49L48,49L48,53L52,53L52,49L53,49C54.097,49 55,48.097 55,47L55,46L59,46L59,42L55,42L55,40L59,40L59,36L55,36L55,34L59,34L59,30L55,30L55,29ZM44,44C40.708,44 38,41.292 38,38C38,34.708 40.708,32 44,32C47.292,32 50,34.708 50,38C50,41.292 47.292,44 44,44Z" style="fill-rule:nonzero;"/>
                    </g>
                    <g transform="matrix(1,0,0,1,496,294)">
                        <path d="M14,12.962C14,11.879 13.263,11 12.356,11L6.644,11C5.737,11 5,11.879 5,12.962L5,51.038C5,52.121 5.737,53 6.644,53L12.356,53C13.263,53 14,52.121 14,51.038L14,12.962Z"/>
                    </g>
                    <g transform="matrix(1,0,0,1,496,294)">
                        <path d="M24,12.962C24,11.879 23.263,11 22.356,11L16.644,11C15.737,11 15,11.879 15,12.962L15,51.038C15,52.121 15.737,53 16.644,53L22.356,53C23.263,53 24,52.121 24,51.038L24,12.962Z"/>
                    </g>
                    <g transform="matrix(1,0,0,1,496,294)">
                        <path d="M55,19L59,19L59,13C59,11.903 58.097,11 57,11L39,11L39,15L55,15L55,19Z" style="fill-rule:nonzero;"/>
                    </g>
                    <g transform="matrix(1,0,0,1,496,294)">
                        <rect x="55" y="20" width="4" height="4" style="fill:rgb(204,0,0);"/>
                    </g>
                </g>
                <g transform="matrix(1,0,0,1,291.837,75.2769)">
                    <rect x="1080" y="614" width="34" height="11.173" style="fill:none;stroke:black;stroke-width:8px;"/>
                    <rect x="1080" y="614" width="34" height="11.173" style="fill:rgb(204,0,0);"/>
                </g>
            </g>
        </g>
    </g>
</svg>
